
****** Lost Boys.The.Thirst.2010.DVDRiP.XviD.OPTIONAL-MULTISUB-Zen_Bud ******

Format                           : AVI
File size                        : 705 MiB
Duration                         : 1h 18mn
Overall bit rate                 : 1 264 Kbps

Video

Format                           : MPEG-4 Visual
Codec ID/Hint                    : XviD
Duration                         : 1h 18mn
Bit rate                         : 1 123 Kbps
Width                            : 718 pixels
Height                           : 428 pixels
Display aspect ratio             : 2.35:1
Stream size                      : 627 MiB (89%)
Writing library                  : XviD 1.1.2 (UTC 2006-11-01)

Audio

Format                           : MPEG Audio
Codec ID/Hint                    : MP3
Duration                         : 1h 18mn
Bit rate                         : 128 Kbps
Channel(s)                       : 2 channels
Sampling rate                    : 48.0 KHz
Stream size                      : 71.4 MiB (10%)
Writing library                  : LAME3.98
Language                         : English

Text #1
Language                         : English

Text #2
Language                         : Danish

Text #3
Language                         : Dutch

Text #4
Language                         : Finnish

Text #5
Language                         : French

Text #6
Language                         : German

Text #7
Language                         : Norwegian

Text #8
Language                         : Spanish

Text #9
Language                         : Swedish




The thankless life of a vampire hunter has taken its toll on Edgar Frog. After losing best friend and fellow vamp fighter...